<svg xmlns="http://www.w3.org/2000/svg" xmlns:xlink="http://www.w3.org/1999/xlink" xmlns:lucid="lucid" width="2210.08" height="1198"><g transform="translate(-60.37315696777205 -60)" lucid:page-tab-id="0_0"><path d="M715.4 420c0-4.42 3.6-8 8-8h24c4.43 0 8 3.58 8 8v144c0 4.42-3.57 8-8 8h-24c-4.4 0-8-3.58-8-8zM2135.4 870c0-4.42 3.6-8 8-8h24c4.43 0 8 3.58 8 8v334c0 4.42-3.57 8-8 8h-24c-4.4 0-8-3.58-8-8zM155.4 420c0-4.42 3.6-8 8-8h24c4.43 0 8 3.58 8 8v144c0 4.42-3.57 8-8 8h-24c-4.4 0-8-3.58-8-8zM1215.4 560c0-4.42 3.6-8 8-8h24c4.43 0 8 3.58 8 8v224c0 4.42-3.57 8-8 8h-24c-4.4 0-8-3.58-8-8zM1655.4 780c0-4.42 3.6-8 8-8h24c4.43 0 8 3.58 8 8v304c0 4.42-3.57 8-8 8h-24c-4.4 0-8-3.58-8-8z" stroke="#333" fill="#c1e4f7"/><path d="M175.4 380.54v9.9m0 9.88v19.8m0 9.88v19.8m0 9.88v19.78m0 9.9v19.78m0 9.9v19.78m0 9.9v19.77m0 9.9v19.77m0 9.9v19.78m0 9.9v19.78m0 9.9v19.77m0 9.9v19.78m0 9.9v19.78m0 9.9v19.77m0 9.9v19.78m0 9.9v19.8m0 9.88v19.8m0 9.88v19.78m0 9.9v19.78m0 9.9v19.78m0 9.9v19.77m0 9.9v19.78m0 9.9v19.78m0 9.9V1073m0 9.9v19.78m0 9.9v19.78m0 9.9v19.78m0 9.9v19.78m0 9.9v9.88" stroke="#333" fill="none"/><path d="M175.9 380.55h-1v-.5h1z" fill="#333"/><path d="M175.4 1211.5v.5M735.4 380.54v10.1m0 10.08v20.17m0 10.08v20.18m0 10.1v20.17m0 10.08v20.2m0 10.08v20.18m0 10.1v20.17m0 10.08v20.2m0 10.08v20.18m0 10.1V663m0 10.1v20.17m0 10.08v20.18m0 10.1v20.16m0 10.1v20.17m0 10.08v20.18m0 10.08v20.18m0 10.1v20.17m0 10.08v20.17m0 10.1v20.17m0 10.1v20.17m0 10.08v20.17m0 10.1v20.17m0 10.1v20.17m0 10.07v20.18m0 10.1V1117m0 10.1v20.17m0 10.07v20.18m0 10.1v20.17m0 10.1V1228" stroke="#333" fill="none"/><path d="M735.9 380.55h-1v-.5h1z" fill="#333"/><path d="M735.4 1227.98v.52" stroke="#333" fill="none"/><path d="M80.37 266.04c0-4.42 3.58-8 8-8h174.08c4.42 0 8 3.58 8 8v106c0 4.42-3.58 8-8 8H88.37c-4.42 0-8-3.58-8-8z" stroke="#000" stroke-opacity="0" fill="#c1e4f7"/><use xlink:href="#a" transform="matrix(1,0,0,1,88.37315696777208,266.03830422217885) translate(6.141975308641975 56.55555555555555)"/><use xlink:href="#b" transform="matrix(1,0,0,1,88.37315696777208,266.03830422217885) translate(104.75925925925927 56.55555555555555)"/><path d="M640.37 266.04c0-4.42 3.58-8 8-8h174.08c4.42 0 8 3.58 8 8v106c0 4.42-3.58 8-8 8H648.37c-4.42 0-8-3.58-8-8z" stroke="#000" stroke-opacity="0" fill="#c1e4f7"/><use xlink:href="#a" transform="matrix(1,0,0,1,648.373156967772,266.03830422217885) translate(1.228395061728392 56.55555555555555)"/><use xlink:href="#c" transform="matrix(1,0,0,1,648.373156967772,266.03830422217885) translate(99.84567901234568 56.55555555555555)"/><path d="M175.9 436.2h139.5c0-.02.02-.03.03-.03h123.6M175.92 436.2h-.5" stroke="#333" fill="none"/><path d="M453.8 436.17l-14.27 4.64v-9.27z" stroke="#333" fill="#333"/><use xlink:href="#d" transform="matrix(1,0,0,1,238.00268649252385,410.8368911905092) translate(0.0049999999999954525 14.222222222222223)"/><use xlink:href="#e" transform="matrix(1,0,0,1,238.00268649252385,410.8368911905092) translate(61.1408024691358 14.222222222222223)"/><path d="M80.37 88c0-4.42 3.58-8 8-8h2141.58c4.42 0 8 3.58 8 8v47.1c0 4.42-3.58 8-8 8H88.37c-4.42 0-8-3.58-8-8z" stroke="#000" stroke-opacity="0" stroke-width="2" fill="#fff" fill-opacity="0"/><use xlink:href="#f" transform="matrix(1,0,0,1,84.37315696777205,84) translate(845.951975308642 34.15777777777778)"/><use xlink:href="#g" transform="matrix(1,0,0,1,84.37315696777205,84) translate(919.447037037037 34.15777777777778)"/><use xlink:href="#h" transform="matrix(1,0,0,1,84.37315696777205,84) translate(1038.6853086419753 34.15777777777778)"/><use xlink:href="#i" transform="matrix(1,0,0,1,84.37315696777205,84) translate(1187.0593827160494 34.15777777777778)"/><path d="M766.72 141.05h808.3M766.74 141.05h-1.02M1575 141.05h1.03" stroke="#a9afb8" stroke-width="2" fill="none"/><path d="M80.37 151.1c0-4.4 3.58-8 8-8h2144c4.42 0 8 3.6 8 8V164c0 4.42-3.58 8-8 8h-2144c-4.42 0-8-3.58-8-8z" stroke="#000" stroke-opacity="0" stroke-width="2" fill="#fff" fill-opacity="0"/><use xlink:href="#j" transform="matrix(1,0,0,1,84.37315696777296,147.1046767336666) translate(957.2158127572015 14.917037037037037)"/><use xlink:href="#k" transform="matrix(1,0,0,1,84.37315696777296,147.1046767336666) translate(986.1088168724278 14.917037037037037)"/><use xlink:href="#l" transform="matrix(1,0,0,1,84.37315696777296,147.1046767336666) translate(1064.162417695473 14.917037037037037)"/><use xlink:href="#m" transform="matrix(1,0,0,1,84.37315696777296,147.1046767336666) translate(1076.611903292181 14.917037037037037)"/><use xlink:href="#n" transform="matrix(1,0,0,1,84.37315696777296,147.1046767336666) translate(1141.9185905349793 14.917037037037037)"/><use xlink:href="#o" transform="matrix(1,0,0,1,84.37315696777296,147.1046767336666) translate(1167.412417695473 14.917037037037037)"/><path d="M1455.4 380.54v9.75m0 9.74v19.5m0 9.75v19.5m0 9.75v19.5m0 9.75v19.5m0 9.76v19.5m0 9.75v19.5m0 9.76v19.5m0 9.76v19.5m0 9.75v19.5m0 9.75v19.5m0 9.76v19.5m0 9.75v19.5m0 9.76v19.5m0 9.74V799.83m0 9.75v19.5m0 9.75v19.5m0 9.75v19.5m0 9.75v19.5m0 9.76v19.5m0 9.76v19.5m0 9.76v19.5m0 9.75v19.5m0 9.75v19.5m0 9.76v19.5m0 9.75v19.5m0 9.75v19.5m0 9.76v19.5m0 9.75v9.74" stroke="#333" fill="none"/><path d="M1455.9 380.55h-1v-.5h1z" fill="#333"/><path d="M1455.4 1199.63v.5" stroke="#333" fill="none"/><path d="M1360.37 266.04c0-4.42 3.58-8 8-8h174.08c4.42 0 8 3.58 8 8v106c0 4.42-3.58 8-8 8h-174.08c-4.42 0-8-3.58-8-8z" stroke="#000" stroke-opacity="0" fill="#ffeca9"/><use xlink:href="#p" transform="matrix(1,0,0,1,1368.373156967772,266.03830422217885) translate(18.9320987654321 45.888888888888886)"/><use xlink:href="#q" transform="matrix(1,0,0,1,1368.373156967772,266.03830422217885) translate(87.03086419753087 45.888888888888886)"/><use xlink:href="#r" transform="matrix(1,0,0,1,1368.373156967772,266.03830422217885) translate(62.80864197530864 67.22222222222223)"/><path d="M995.4 380.54v10.1m0 10.08v20.17m0 10.08v20.18m0 10.1v20.17m0 10.08v20.2m0 10.08v20.18m0 10.1v20.17m0 10.08v20.2m0 10.08v20.18m0 10.1V663m0 10.1v20.17m0 10.08v20.18m0 10.1v20.16m0 10.1v20.17m0 10.08v20.18m0 10.08v20.18m0 10.1v20.17m0 10.08v20.17m0 10.1v20.17m0 10.1v20.17m0 10.08v20.17m0 10.1v20.17m0 10.1v20.17m0 10.07v20.18m0 10.1V1117m0 10.1v20.17m0 10.07v20.18m0 10.1v20.17m0 10.1V1228" stroke="#333" fill="none"/><path d="M995.9 380.55h-1v-.5h1z" fill="#333"/><path d="M995.4 1227.98v.52" stroke="#333" fill="none"/><path d="M900.37 266.04c0-4.42 3.58-8 8-8h174.08c4.42 0 8 3.58 8 8v106c0 4.42-3.58 8-8 8H908.37c-4.42 0-8-3.58-8-8z" stroke="#000" stroke-opacity="0" fill="#ffc374"/><use xlink:href="#s" transform="matrix(1,0,0,1,908.373156967772,266.03830422217885) translate(48.01851851851851 56.55555555555555)"/><use xlink:href="#t" transform="matrix(1,0,0,1,908.373156967772,266.03830422217885) translate(87.52469135802468 56.55555555555555)"/><path d="M455.4 380.54v10.1m0 10.08v20.17m0 10.08v20.18m0 10.1v20.17m0 10.08v20.2m0 10.08v20.18m0 10.1v20.17m0 10.08v20.2m0 10.08v20.18m0 10.1V663m0 10.1v20.17m0 10.08v20.18m0 10.1v20.16m0 10.1v20.17m0 10.08v20.18m0 10.08v20.18m0 10.1v20.17m0 10.08v20.17m0 10.1v20.17m0 10.1v20.17m0 10.08v20.17m0 10.1v20.17m0 10.1v20.17m0 10.07v20.18m0 10.1V1117m0 10.1v20.17m0 10.07v20.18m0 10.1v20.17m0 10.1V1228" stroke="#333" fill="none"/><path d="M455.9 380.55h-1v-.5h1z" fill="#333"/><path d="M455.4 1227.98v.52" stroke="#333" fill="none"/><path d="M360.37 266.04c0-4.42 3.58-8 8-8h174.08c4.42 0 8 3.58 8 8v106c0 4.42-3.58 8-8 8H368.37c-4.42 0-8-3.58-8-8z" stroke="#000" stroke-opacity="0" fill="#ffeca9"/><use xlink:href="#a" transform="matrix(1,0,0,1,368.37315696777205,266.03830422217885) translate(9.055555555555543 56.55555555555555)"/><use xlink:href="#u" transform="matrix(1,0,0,1,368.37315696777205,266.03830422217885) translate(107.67283950617283 56.55555555555555)"/><path d="M455.9 487.23h2m4 0h3.98m3.98 0h4m3.98 0h3.98m4 0h3.98m3.98 0h4m3.98 0h3.98m4 0h3.98m3.98 0h4m3.98 0h3.98m4 0h3.98m3.98 0h4m3.98 0h3.98m4 0h3.98m3.98 0h4m3.98 0h3.98m4 0h3.98m3.98 0h4m3.98 0h3.98m4 0h3.98m3.98 0h4m3.98 0h3.98m4 0h3.97m4 0h4m3.97 0h4m3.98 0h3.98m4 0h3.98m4 0h3.98m4 0h3.97m4 0h3.98m3.98 0h4m4 0h3.97m4 0h3.98m3.98 0h2M455.92 487.23h-.5" stroke="#333" fill="none"/><path d="M733.8 487.23l-14.27 4.63v-9.27z" stroke="#333" fill="#333"/><use xlink:href="#v" transform="matrix(1,0,0,1,509.0107760326955,461.6291231366286) translate(0.0049999999999954525 14.4)"/><use xlink:href="#w" transform="matrix(1,0,0,1,509.0107760326955,461.6291231366286) translate(77.955 14.4)"/><path d="M735.9 531.5h243.13M735.92 531.5h-.5" stroke="#333" fill="none"/><path d="M993.8 531.5l-14.27 4.63v-9.27z" stroke="#333" fill="#333"/><use xlink:href="#x" transform="matrix(1,0,0,1,790.5107760326955,505.8905458685986) translate(0.0049999999999954525 14.4)"/><use xlink:href="#w" transform="matrix(1,0,0,1,790.5107760326955,505.8905458685986) translate(54.955 14.4)"/><path d="M1140.37 266.04c0-4.42 3.58-8 8-8h174.08c4.42 0 8 3.58 8 8v106c0 4.42-3.58 8-8 8h-174.08c-4.42 0-8-3.58-8-8z" stroke="#000" stroke-opacity="0" fill="#c1e4f7"/><use xlink:href="#p" transform="matrix(1,0,0,1,1148.373156967772,266.03830422217885) translate(18.9320987654321 45.888888888888886)"/><use xlink:href="#q" transform="matrix(1,0,0,1,1148.373156967772,266.03830422217885) translate(87.03086419753087 45.888888888888886)"/><use xlink:href="#y" transform="matrix(1,0,0,1,1148.373156967772,266.03830422217885) translate(50.53703703703704 67.22222222222223)"/><path d="M1235.4 380.54v10m0 10.02v20.02m0 10v20.04m0 10v20.03m0 10v20.03m0 10v20.04m0 10v20.03m0 10v20.03m0 10v20.03m0 10.03v20.02m0 10v20.03m0 10v20.03m0 10.03v20.02m0 10V781m0 10v20.03m0 10.02v20.03m0 10v20.03m0 10v20.03m0 10.02v20.03m0 10v20.03m0 10v20.03m0 10.02v20.03m0 10v20.03m0 10v20.03m0 10.02v20.03m0 10v20.03m0 10v20.03m0 10.02v20.02m0 10.02v20.02m0 10v10.02" stroke="#333" fill="none"/><path d="M1235.9 380.55h-1v-.5h1z" fill="#333"/><path d="M1235.4 1251.5v.5M1235.9 759.05h203.13M1235.92 759.05h-.5" stroke="#333" fill="none"/><path d="M1453.8 759.05l-14.27 4.64v-9.28z" stroke="#333" fill="#333"/><use xlink:href="#z" transform="matrix(1,0,0,1,1276.0607760326955,733.4522635658927) translate(0.0049999999999954525 14.4)"/><use xlink:href="#A" transform="matrix(1,0,0,1,1276.0607760326955,733.4522635658927) translate(61.905 14.4)"/><use xlink:href="#B" transform="matrix(1,0,0,1,1276.0607760326955,733.4522635658927) translate(104.805 14.4)"/><path d="M1675.4 380.54v9.75m0 9.74v19.5m0 9.75v19.5m0 9.75v19.5m0 9.75v19.5m0 9.76v19.5m0 9.75v19.5m0 9.76v19.5m0 9.76v19.5m0 9.75v19.5m0 9.75v19.5m0 9.76v19.5m0 9.75v19.5m0 9.76v19.5m0 9.74V799.83m0 9.75v19.5m0 9.75v19.5m0 9.75v19.5m0 9.75v19.5m0 9.76v19.5m0 9.76v19.5m0 9.76v19.5m0 9.75v19.5m0 9.75v19.5m0 9.76v19.5m0 9.75v19.5m0 9.75v19.5m0 9.76v19.5m0 9.75v9.74" stroke="#333" fill="none"/><path d="M1675.9 380.55h-1v-.5h1z" fill="#333"/><path d="M1675.4 1199.63v.5" stroke="#333" fill="none"/><path d="M1580.37 266.04c0-4.42 3.58-8 8-8h174.08c4.42 0 8 3.58 8 8v106c0 4.42-3.58 8-8 8h-174.08c-4.42 0-8-3.58-8-8z" stroke="#000" stroke-opacity="0" fill="#c1e4f7"/><use xlink:href="#C" transform="matrix(1,0,0,1,1588.373156967772,266.03830422217885) translate(40.660493827160494 56.55555555555555)"/><path d="M1915.4 380.54v9.75m0 9.74v19.5m0 9.75v19.5m0 9.75v19.5m0 9.75v19.5m0 9.76v19.5m0 9.75v19.5m0 9.76v19.5m0 9.76v19.5m0 9.75v19.5m0 9.75v19.5m0 9.76v19.5m0 9.75v19.5m0 9.76v19.5m0 9.74V799.83m0 9.75v19.5m0 9.75v19.5m0 9.75v19.5m0 9.75v19.5m0 9.76v19.5m0 9.76v19.5m0 9.76v19.5m0 9.75v19.5m0 9.75v19.5m0 9.76v19.5m0 9.75v19.5m0 9.75v19.5m0 9.76v19.5m0 9.75v9.74" stroke="#333" fill="none"/><path d="M1915.9 380.55h-1v-.5h1z" fill="#333"/><path d="M1915.4 1199.63v.5" stroke="#333" fill="none"/><path d="M1820.37 266.04c0-4.42 3.58-8 8-8h174.08c4.42 0 8 3.58 8 8v106c0 4.42-3.58 8-8 8h-174.08c-4.42 0-8-3.58-8-8z" stroke="#000" stroke-opacity="0" fill="#ffeca9"/><use xlink:href="#D" transform="matrix(1,0,0,1,1828.373156967772,266.03830422217885) translate(25.376543209876544 45.888888888888886)"/><use xlink:href="#E" transform="matrix(1,0,0,1,1828.373156967772,266.03830422217885) translate(112.19135802469135 45.888888888888886)"/><use xlink:href="#r" transform="matrix(1,0,0,1,1828.373156967772,266.03830422217885) translate(62.80864197530864 67.22222222222223)"/><path d="M1455.9 805.9h1.97m3.9 0h3.92m3.9 0h3.9m3.92 0h3.9m3.92 0h3.9m3.92 0h3.9m3.92 0h3.9m3.93 0h3.92m3.9 0h3.92m3.9 0h3.92m3.9 0h3.92m3.9 0h3.92m3.9 0h3.92m3.9 0h3.92m3.9 0H1567.38m3.9 0h3.9m3.9 0h3.9m3.9 0h3.9m3.9 0h3.9m3.9 0h3.9m3.9 0h3.9m3.9 0h3.9m3.9 0h3.9m3.9 0h3.9m3.9 0h3.9m3.92 0h3.9m3.9 0h1.95M1455.92 805.9h-.5" stroke="#333" fill="none"/><path d="M1673.8 805.9l-14.27 4.63v-9.27z" stroke="#333" fill="#333"/><use xlink:href="#v" transform="matrix(1,0,0,1,1488.0357581505393,780.2987343872292) translate(0.0049999999999954525 14.4)"/><use xlink:href="#A" transform="matrix(1,0,0,1,1488.0357581505393,780.2987343872292) translate(77.955 14.4)"/><use xlink:href="#B" transform="matrix(1,0,0,1,1488.0357581505393,780.2987343872292) translate(120.855 14.4)"/><path d="M1675.9 853.34h223.13M1675.92 853.34h-.5" stroke="#333" fill="none"/><path d="M1913.8 853.33l-14.27 4.64v-9.27z" stroke="#333" fill="#333"/><use xlink:href="#z" transform="matrix(1,0,0,1,1707.0607601743393,827.7342103113302) translate(0.0049999999999954525 14.4)"/><use xlink:href="#F" transform="matrix(1,0,0,1,1707.0607601743393,827.7342103113302) translate(61.905 14.4)"/><use xlink:href="#G" transform="matrix(1,0,0,1,1707.0607601743393,827.7342103113302) translate(149.805 14.4)"/><path d="M2155.4 380.54v10.1m0 10.12V421m0 10.1v20.23m0 10.1v20.23m0 10.1V512m0 10.1v20.24m0 10.1v20.23m0 10.12V603m0 10.12v20.23m0 10.1v20.24m0 10.1v20.22m0 10.12v20.22m0 10.1v20.24m0 10.1v20.23m0 10.12v20.22m0 10.1v20.24m0 10.12v20.23m0 10.1v20.23m0 10.12v20.22m0 10.1v20.24m0 10.1v20.24m0 10.1v20.23m0 10.1v20.24m0 10.1v20.24m0 10.12v20.22m0 10.12v20.22m0 10.1v20.24m0 10.1v10.12" stroke="#333" fill="none"/><path d="M2155.9 380.55h-1v-.5h1z" fill="#333"/><path d="M2155.4 1199.63v.5" stroke="#333" fill="none"/><path d="M2060.37 266.04c0-4.42 3.58-8 8-8h174.08c4.42 0 8 3.58 8 8v106c0 4.42-3.58 8-8 8h-174.08c-4.42 0-8-3.58-8-8z" stroke="#000" stroke-opacity="0" fill="#c1e4f7"/><use xlink:href="#D" transform="matrix(1,0,0,1,2068.3731569677716,266.03830422217885) translate(25.376543209876544 45.888888888888886)"/><use xlink:href="#E" transform="matrix(1,0,0,1,2068.3731569677716,266.03830422217885) translate(112.19135802469135 45.888888888888886)"/><use xlink:href="#y" transform="matrix(1,0,0,1,2068.3731569677716,266.03830422217885) translate(50.53703703703704 67.22222222222223)"/><path d="M1915.9 903.62h2m4 0h3.97m4 0h3.97m3.98 0h4m3.97 0h3.98m3.98 0h4m3.97 0h3.98m4 0h3.98m4 0h3.97m3.98 0h4m3.97 0h4m3.97 0h4m3.97 0h3.98m4 0h3.97m3.98 0h3.98m4 0h3.97m3.98 0h4m3.98 0h4m3.97 0h3.98m4 0h3.97m4 0h3.97m4 0h3.97m3.98 0h4m3.97 0h3.98m3.98 0h4m3.97 0h3.98m4 0h3.98m4 0h3.97m3.98 0h2M1915.92 903.62h-.5" stroke="#333" fill="none"/><path d="M2153.8 903.62l-14.27 4.64V899z" stroke="#333" fill="#333"/><use xlink:href="#v" transform="matrix(1,0,0,1,1939.0357760326951,878.0220310077528) translate(0.0049999999999954525 14.4)"/><use xlink:href="#F" transform="matrix(1,0,0,1,1939.0357760326951,878.0220310077528) translate(77.955 14.4)"/><use xlink:href="#G" transform="matrix(1,0,0,1,1939.0357760326951,878.0220310077528) translate(165.85500000000002 14.4)"/><path d="M2154.9 951.98H1011.8M2154.9 951.98h.5" stroke="#333" fill="none"/><path d="M997.03 951.98l14.26-4.64v9.27z" stroke="#333" fill="#333"/><use xlink:href="#H" transform="matrix(1,0,0,1,1978.8938934018809,926.3767441860466) translate(0.005000000000002558 14.4)"/><use xlink:href="#I" transform="matrix(1,0,0,1,1978.8938934018809,926.3767441860466) translate(53.90500000000001 14.4)"/><path d="M1454.9 601.9h-2.02m-4.06 0h-4.07m-4.06 0h-4.07m-4.06 0h-4.06m-4.06 0h-4.06m-4.06 0h-4.06m-4.07 0h-4.07m-4.06 0H1396m-4.06 0h-4.06m-4.06 0h-4.06m-4.06 0h-4.07m-4.06 0h-4.06m-4.05 0h-4.07m-4.06 0h-4.06m-4.06 0h-4.07m-4.06 0H1331m-4.05 0h-4.06m-4.08 0h-4.06m-4.06 0h-4.06m-4.07 0h-4.06m-4.05 0h-4.06m-4.08 0h-4.06m-4.06 0h-4.06m-4.06 0H1266m-4.05 0h-4.06m-4.07 0h-2.04M1454.9 601.9h.5" stroke="#333" fill="none"/><path d="M1237.03 601.9l14.26-4.63v9.27z" stroke="#333" fill="#333"/><g><use xlink:href="#J" transform="matrix(1,0,0,1,1286.4357760326955,576.3031007751939) translate(0.005000000000002558 14.4)"/><use xlink:href="#K" transform="matrix(1,0,0,1,1286.4357760326955,576.3031007751939) translate(52.005 14.4)"/></g><path d="M995.9 652h2m4 0h3.97m4 0h3.97m3.98 0h4m3.97 0h3.98m3.98 0h4m3.97 0h3.98m4 0h3.98m4 0h3.97m3.98 0h4m3.97 0h4m3.97 0h4m3.97 0h3.98m4 0h3.97m3.98 0h3.98m4 0h3.97m3.98 0h4m3.98 0h4m3.97 0h3.98m4 0h3.97m4 0h3.97m4 0h3.97m3.98 0h4m3.97 0h3.98m3.98 0h4m3.97 0h3.98m4 0h3.98m4 0h3.97m3.98 0h2M995.92 652h-.5" stroke="#333" fill="none"/><path d="M1233.8 652l-14.27 4.64v-9.28z" stroke="#333" fill="#333"/><g><use xlink:href="#L" transform="matrix(1,0,0,1,1070.4857760326954,626.4) translate(0.005000000000002558 14.4)"/><use xlink:href="#M" transform="matrix(1,0,0,1,1070.4857760326954,626.4) translate(51.955000000000005 14.4)"/></g><path d="M1011.8 712h223.1" stroke="#333" fill="none"/><path d="M997.03 712l14.26-4.64v9.28z" stroke="#333" fill="#333"/><path d="M1234.9 712h.5" stroke="#333" fill="none"/><g><use xlink:href="#N" transform="matrix(1,0,0,1,1061.9607760326953,686.4000000000001) translate(0.005000000000002558 14.4)"/><use xlink:href="#O" transform="matrix(1,0,0,1,1061.9607760326953,686.4000000000001) translate(54.955000000000005 14.4)"/></g><path d="M1011.8 986.8h1143.1" stroke="#333" fill="none"/><path d="M997.03 986.8l14.26-4.65v9.27z" stroke="#333" fill="#333"/><path d="M2154.9 986.8h.5" stroke="#333" fill="none"/><g><use xlink:href="#x" transform="matrix(1,0,0,1,1952.8121104561442,961.1906976744186) translate(0.0049999999999954525 14.4)"/><use xlink:href="#P" transform="matrix(1,0,0,1,1952.8121104561442,961.1906976744186) translate(54.955 14.4)"/><use xlink:href="#Q" transform="matrix(1,0,0,1,1952.8121104561442,961.1906976744186) translate(86.85499999999999 14.4)"/></g><path d="M960.37 829.67c0-4.42 3.58-8 8-8h114c4.42 0 8 3.58 8 8v4.93c0 3.9-2.24 9.3-5 12.07-2.76 2.76-8.16 5-12.07 5H968.37c-4.42 0-8-3.58-8-8z" fill="#c1e4f7"/><path d="M1090.37 821.67v20l-10 10h-120" stroke="#333" fill="none"/><path d="M960.37 829.67c0-4.42 3.58-8 8-8h1224c4.42 0 8 3.58 8 8V1024c0 4.42-3.58 8-8 8h-1224c-4.42 0-8-3.58-8-8z" stroke="#333" fill="none"/><g><use xlink:href="#R" transform="matrix(1,0,0,1,968.373156967772,821.6705426356589) translate(36 18.6)"/></g><g><use xlink:href="#S" transform="matrix(1,0,0,1,972.373156967772,859.6705426356589) translate(7.75 18.6)"/><use xlink:href="#T" transform="matrix(1,0,0,1,972.373156967772,859.6705426356589) translate(33.7 18.6)"/><use xlink:href="#P" transform="matrix(1,0,0,1,972.373156967772,859.6705426356589) translate(77.7 18.6)"/><use xlink:href="#U" transform="matrix(1,0,0,1,972.373156967772,859.6705426356589) translate(109.6 18.6)"/><use xlink:href="#V" transform="matrix(1,0,0,1,972.373156967772,859.6705426356589) translate(160.45 18.6)"/><use xlink:href="#A" transform="matrix(1,0,0,1,972.373156967772,859.6705426356589) translate(175.45 18.6)"/><use xlink:href="#B" transform="matrix(1,0,0,1,972.373156967772,859.6705426356589) translate(218.35 18.6)"/></g><path d="M1675.9 1072h223.13M1675.92 1072h-.5" stroke="#333" fill="none"/><path d="M1913.8 1072l-14.27 4.63v-9.27z" stroke="#333" fill="#333"/><g><use xlink:href="#z" transform="matrix(1,0,0,1,1706.085760332261,1046.3980009889483) translate(0.0049999999999954525 14.4)"/><use xlink:href="#W" transform="matrix(1,0,0,1,1706.085760332261,1046.3980009889483) translate(61.905 14.4)"/></g><path d="M1915.9 1132h2m4 0h3.97m3.98 0h4m3.97 0h3.98m4 0h3.97m3.98 0h4m3.97 0h3.98m4 0h3.97m3.98 0h4m3.97 0h3.98m4 0h3.97m3.98 0h4m3.97 0h3.98m4 0h3.97m3.98 0h4m3.97 0h3.98m4 0h3.97m4 0h3.97m4 0h3.98m3.98 0h4m3.97 0h4m3.97 0h4m3.97 0h4m3.98 0h4m3.97 0h4m3.97 0h4m3.97 0h3.98m3.98 0h4m3.97 0h2M1915.92 1132h-.5" stroke="#333" fill="none"/><path d="M2153.8 1132l-14.27 4.64v-9.28z" stroke="#333" fill="#333"/><g><use xlink:href="#v" transform="matrix(1,0,0,1,1938.060790543459,1106.399000844388) translate(0.0049999999999954525 14.4)"/><use xlink:href="#W" transform="matrix(1,0,0,1,1938.060790543459,1106.399000844388) translate(77.955 14.4)"/></g><path d="M1011.8 1172h1143.1" stroke="#333" fill="none"/><path d="M997.03 1172l14.26-4.64v9.27z" stroke="#333" fill="#333"/><path d="M2154.9 1172h.5" stroke="#333" fill="none"/><g><use xlink:href="#X" transform="matrix(1,0,0,1,1764.7954437894778,1146.3999999999999) translate(0.0049999999999954525 14.4)"/><use xlink:href="#Y" transform="matrix(1,0,0,1,1764.7954437894778,1146.3999999999999) translate(58.955 14.4)"/><use xlink:href="#Z" transform="matrix(1,0,0,1,1764.7954437894778,1146.3999999999999) translate(92.955 14.4)"/><use xlink:href="#aa" transform="matrix(1,0,0,1,1764.7954437894778,1146.3999999999999) translate(176.755 14.4)"/><use xlink:href="#ab" transform="matrix(1,0,0,1,1764.7954437894778,1146.3999999999999) translate(233.70499999999998 14.4)"/><use xlink:href="#ac" transform="matrix(1,0,0,1,1764.7954437894778,1146.3999999999999) translate(259.655 14.4)"/><use xlink:href="#A" transform="matrix(1,0,0,1,1764.7954437894778,1146.3999999999999) translate(289.655 14.4)"/><use xlink:href="#B" transform="matrix(1,0,0,1,1764.7954437894778,1146.3999999999999) translate(332.55499999999995 14.4)"/></g><defs><path fill="#333" d="M44-68c0 29 11 47 38 47 30 0 42-19 51-41l28 9C148-21 126 4 82 4 31 4 10-29 12-85c3-77 74-140 146-93 12 8 15 23 18 40l-31 5c-1-22-13-36-36-36-52 0-65 49-65 101" id="ad"/><path fill="#333" d="M6 0l50-261h32L37 0H6" id="ae"/><path fill="#333" d="M50-231l6-30h32l-6 30H50zM6 0l37-190h31L37 0H6" id="af"/><path fill="#333" d="M67-162c32-53 139-36 121 50C175-51 163 2 97 4 68 4 52-11 42-31 38 6 28 39 22 75H-9l50-265h29c-1 10 0 20-3 28zm89 36c0-26-10-43-35-43-54 0-67 50-69 103-1 29 14 45 42 46 53 0 62-58 62-106" id="ag"/><path fill="#333" d="M-20 4l123-265h28L8 4h-28" id="ah"/><path fill="#333" d="M111-194c62-3 86 47 72 106H45c-7 38 6 69 45 68 27-1 43-14 53-32l24 11C152-15 129 4 87 4 38 3 12-23 12-71c0-70 32-119 99-123zm44 81c14-66-71-72-95-28-4 8-8 17-11 28h106" id="ai"/><path fill="#333" d="M55-144c13 50 104 24 104 88C159 21 15 23 1-39l26-10c6 40 102 42 102-4-13-50-104-23-104-87 0-71 143-71 148-8l-29 4c-5-35-85-37-89 0" id="aj"/><path fill="#333" d="M30-147c31-64 166-65 159 27C183-49 158 1 86 4 9 8 1-88 30-147zM88-20c53 0 68-48 68-100 0-31-11-51-44-50-52 1-68 46-68 97 0 32 13 53 44 53" id="ak"/><path fill="#333" d="M133-28C103 26-5 8 13-77c13-62 24-115 90-117 29-1 46 15 56 35l19-102h32L160 0h-30zM45-64c-2 27 10 43 35 43 54-1 69-50 69-103 0-29-15-46-42-46-53-1-58 58-62 106" id="al"/><g id="a"><use transform="matrix(0.04938271604938272,0,0,0.04938271604938272,0,0)" xlink:href="#ad"/><use transform="matrix(0.04938271604938272,0,0,0.04938271604938272,8.88888888888889,0)" xlink:href="#ae"/><use transform="matrix(0.04938271604938272,0,0,0.04938271604938272,12.790123456790125,0)" xlink:href="#af"/><use transform="matrix(0.04938271604938272,0,0,0.04938271604938272,16.691358024691358,0)" xlink:href="#ag"/><use transform="matrix(0.04938271604938272,0,0,0.04938271604938272,26.567901234567902,0)" xlink:href="#ah"/><use transform="matrix(0.04938271604938272,0,0,0.04938271604938272,31.506172839506174,0)" xlink:href="#ai"/><use transform="matrix(0.04938271604938272,0,0,0.04938271604938272,41.38271604938272,0)" xlink:href="#ag"/><use transform="matrix(0.04938271604938272,0,0,0.04938271604938272,51.25925925925927,0)" xlink:href="#af"/><use transform="matrix(0.04938271604938272,0,0,0.04938271604938272,55.1604938271605,0)" xlink:href="#aj"/><use transform="matrix(0.04938271604938272,0,0,0.04938271604938272,64.0493827160494,0)" xlink:href="#ak"/><use transform="matrix(0.04938271604938272,0,0,0.04938271604938272,73.92592592592594,0)" xlink:href="#al"/><use transform="matrix(0.04938271604938272,0,0,0.04938271604938272,83.80246913580248,0)" xlink:href="#ai"/><path fill="#333" d="M-.9 1.23H99.5v1.3H-.9z"/></g><path fill="#333" d="M67 3c-93-2-31-127-26-193h32L48-50c-3 39 53 32 70 12 30-34 30-101 43-152h32L157 0h-30c1-10 6-24 4-33-14 20-29 37-64 36" id="am"/><path fill="#333" d="M66-151c12-25 30-51 66-40l-6 26C45-176 58-65 38 0H6l36-190h30" id="an"/><path fill="#333" d="M165-48c-4 18 1 34 23 27l-3 20c-29 8-62 0-52-35h-2C116-14 99 4 63 4 30 4 8-16 8-49c0-68 71-67 138-67 10-26 0-56-31-54-26 1-42 9-47 31l-32-5c8-67 160-71 144 15-5 28-9 54-15 81zM42-50c3 52 80 24 89-6 7-12 7-24 11-38-47 1-103-4-100 44" id="ao"/><path fill="#333" d="M51-54c-9 22 5 41 31 30L79-1C43 14 10-4 19-52l22-115H19l5-23h22l19-43h21l-9 43h35l-4 23H73" id="ap"/><g id="b"><use transform="matrix(0.04938271604938272,0,0,0.04938271604938272,0,0)" xlink:href="#ad"/><use transform="matrix(0.04938271604938272,0,0,0.04938271604938272,8.88888888888889,0)" xlink:href="#am"/><use transform="matrix(0.04938271604938272,0,0,0.04938271604938272,18.765432098765434,0)" xlink:href="#an"/><use transform="matrix(0.04938271604938272,0,0,0.04938271604938272,24.641975308641978,0)" xlink:href="#ao"/><use transform="matrix(0.04938271604938272,0,0,0.04938271604938272,34.51851851851852,0)" xlink:href="#ap"/><use transform="matrix(0.04938271604938272,0,0,0.04938271604938272,39.45679012345679,0)" xlink:href="#ak"/><use transform="matrix(0.04938271604938272,0,0,0.04938271604938272,49.333333333333336,0)" xlink:href="#an"/><use transform="matrix(0.04938271604938272,0,0,0.04938271604938272,55.20987654320988,0)" xlink:href="#aj"/><path fill="#333" d="M-.9 1.23H65v1.3H-.9z"/></g><path fill="#333" d="M67-158c15-20 31-36 64-36 94 0 33 127 27 194h-32l25-140c3-38-53-32-70-12C52-117 51-51 37 0H6l51-261h31" id="aq"/><path fill="#333" d="M89 0H52L20-190h33L74-25l89-165h34" id="ar"/><g id="c"><use transform="matrix(0.04938271604938272,0,0,0.04938271604938272,0,0)" xlink:href="#ao"/><use transform="matrix(0.04938271604938272,0,0,0.04938271604938272,9.876543209876544,0)" xlink:href="#an"/><use transform="matrix(0.04938271604938272,0,0,0.04938271604938272,15.753086419753087,0)" xlink:href="#ad"/><use transform="matrix(0.04938271604938272,0,0,0.04938271604938272,24.641975308641978,0)" xlink:href="#aq"/><use transform="matrix(0.04938271604938272,0,0,0.04938271604938272,34.51851851851852,0)" xlink:href="#af"/><use transform="matrix(0.04938271604938272,0,0,0.04938271604938272,38.41975308641975,0)" xlink:href="#ar"/><use transform="matrix(0.04938271604938272,0,0,0.04938271604938272,47.308641975308646,0)" xlink:href="#af"/><use transform="matrix(0.04938271604938272,0,0,0.04938271604938272,51.20987654320988,0)" xlink:href="#aj"/><use transform="matrix(0.04938271604938272,0,0,0.04938271604938272,60.09876543209877,0)" xlink:href="#ap"/><use transform="matrix(0.04938271604938272,0,0,0.04938271604938272,65.03703703703704,0)" xlink:href="#aj"/><path fill="#333" d="M-.9 1.23h75.7v1.3H-.9z"/></g><path fill="#333" d="M68-162c25-46 127-43 121 31C183-60 169 1 98 4 69 5 53-11 43-31L36 0H5l52-261h31zm88 36c2-27-9-43-34-43-55 0-70 51-70 103 0 29 15 45 43 46 52 0 58-58 61-106" id="as"/><g id="d"><use transform="matrix(0.04938271604938272,0,0,0.04938271604938272,0,0)" xlink:href="#ag"/><use transform="matrix(0.04938271604938272,0,0,0.04938271604938272,9.876543209876544,0)" xlink:href="#am"/><use transform="matrix(0.04938271604938272,0,0,0.04938271604938272,19.75308641975309,0)" xlink:href="#as"/><use transform="matrix(0.04938271604938272,0,0,0.04938271604938272,29.629629629629633,0)" xlink:href="#ae"/><use transform="matrix(0.04938271604938272,0,0,0.04938271604938272,33.53086419753087,0)" xlink:href="#af"/><use transform="matrix(0.04938271604938272,0,0,0.04938271604938272,37.4320987654321,0)" xlink:href="#aj"/><use transform="matrix(0.04938271604938272,0,0,0.04938271604938272,46.32098765432099,0)" xlink:href="#aq"/></g><g id="e"><use transform="matrix(0.04938271604938272,0,0,0.04938271604938272,0,0)" xlink:href="#ad"/><use transform="matrix(0.04938271604938272,0,0,0.04938271604938272,8.88888888888889,0)" xlink:href="#ae"/><use transform="matrix(0.04938271604938272,0,0,0.04938271604938272,12.790123456790125,0)" xlink:href="#af"/><use transform="matrix(0.04938271604938272,0,0,0.04938271604938272,16.691358024691358,0)" xlink:href="#ag"/><use transform="matrix(0.04938271604938272,0,0,0.04938271604938272,26.567901234567902,0)" xlink:href="#ah"/><use transform="matrix(0.04938271604938272,0,0,0.04938271604938272,31.506172839506174,0)" xlink:href="#ai"/><use transform="matrix(0.04938271604938272,0,0,0.04938271604938272,41.38271604938272,0)" xlink:href="#ag"/><use transform="matrix(0.04938271604938272,0,0,0.04938271604938272,51.25925925925927,0)" xlink:href="#af"/><use transform="matrix(0.04938271604938272,0,0,0.04938271604938272,55.1604938271605,0)" xlink:href="#aj"/><use transform="matrix(0.04938271604938272,0,0,0.04938271604938272,64.0493827160494,0)" xlink:href="#ak"/><use transform="matrix(0.04938271604938272,0,0,0.04938271604938272,73.92592592592594,0)" xlink:href="#al"/><use transform="matrix(0.04938271604938272,0,0,0.04938271604938272,83.80246913580248,0)" xlink:href="#ai"/></g><path fill="#a9afb8" d="M136-208V0H84v-208H4v-40h212v40h-80" id="at"/><path fill="#a9afb8" d="M182-130c37 4 62 22 62 59C244 23 116-4 24 0v-248c84 5 203-23 205 63 0 31-19 50-47 55zM76-148c40-3 101 13 101-30 0-44-60-28-101-31v61zm0 110c48-3 116 14 116-37 0-48-69-32-116-35v72" id="au"/><path fill="#a9afb8" d="M24 0v-248h52v208h133V0H24" id="av"/><g id="f"><use transform="matrix(0.0728395061728395,0,0,0.0728395061728395,0,0)" xlink:href="#at"/><use transform="matrix(0.0728395061728395,0,0,0.0728395061728395,15.95185185185185,0)" xlink:href="#au"/><use transform="matrix(0.0728395061728395,0,0,0.0728395061728395,34.81728395061728,0)" xlink:href="#at"/><use transform="matrix(0.0728395061728395,0,0,0.0728395061728395,50.76913580246913,0)" xlink:href="#av"/></g><path fill="#a9afb8" d="M199 0l-22-63H83L61 0H9l90-248h61L250 0h-51zm-33-102l-36-108c-10 38-24 72-36 108h72" id="aw"/><path fill="#a9afb8" d="M135-150c-39-12-60 13-60 57V0H25l-1-190h47c2 13-1 29 3 40 6-28 27-53 61-41v41" id="ax"/><path fill="#a9afb8" d="M190-63c-7 42-38 67-86 67-59 0-84-38-90-98-12-110 154-137 174-36l-49 2c-2-19-15-32-35-32-30 0-35 28-38 64-6 74 65 87 74 30" id="ay"/><path fill="#a9afb8" d="M114-157C55-157 80-60 75 0H25v-261h50l-1 109c12-26 28-41 61-42 86-1 58 113 63 194h-50c-7-57 23-157-34-157" id="az"/><path fill="#a9afb8" d="M25-224v-37h50v37H25zM25 0v-190h50V0H25" id="aA"/><path fill="#a9afb8" d="M128 0H69L1-190h53L99-40l48-150h52" id="aB"/><path fill="#a9afb8" d="M137-138c1-29-70-34-71-4 15 46 118 7 119 86 1 83-164 76-172 9l43-7c4 19 20 25 44 25 33 8 57-30 24-41C81-84 22-81 20-136c-2-80 154-74 161-7" id="aC"/><path fill="#a9afb8" d="M115-3C79 11 28 4 28-45v-112H4v-33h27l15-45h31v45h36v33H77v99c-1 23 16 31 38 25v30" id="aD"/><g id="g"><use transform="matrix(0.0728395061728395,0,0,0.0728395061728395,0,0)" xlink:href="#aw"/><use transform="matrix(0.0728395061728395,0,0,0.0728395061728395,18.86543209876543,0)" xlink:href="#ax"/><use transform="matrix(0.0728395061728395,0,0,0.0728395061728395,29.062962962962963,0)" xlink:href="#ay"/><use transform="matrix(0.0728395061728395,0,0,0.0728395061728395,43.63086419753086,0)" xlink:href="#az"/><use transform="matrix(0.0728395061728395,0,0,0.0728395061728395,59.582716049382704,0)" xlink:href="#aA"/><use transform="matrix(0.0728395061728395,0,0,0.0728395061728395,66.86666666666666,0)" xlink:href="#aB"/><use transform="matrix(0.0728395061728395,0,0,0.0728395061728395,81.43456790123457,0)" xlink:href="#aA"/><use transform="matrix(0.0728395061728395,0,0,0.0728395061728395,88.7185185185185,0)" xlink:href="#aC"/><use transform="matrix(0.0728395061728395,0,0,0.0728395061728395,103.2864197530864,0)" xlink:href="#aD"/></g><path fill="#a9afb8" d="M24-248c93 1 206-16 204 79-1 75-69 88-152 82V0H24v-248zm52 121c47 0 100 7 100-41 0-47-54-39-100-39v80" id="aE"/><path fill="#a9afb8" d="M110-194c64 0 96 36 96 99 0 64-35 99-97 99-61 0-95-36-95-99 0-62 34-99 96-99zm-1 164c35 0 45-28 45-65 0-40-10-65-43-65-34 0-45 26-45 65 0 36 10 65 43 65" id="aF"/><path fill="#a9afb8" d="M185-48c-13 30-37 53-82 52C43 2 14-33 14-96s30-98 90-98c62 0 83 45 84 108H66c0 31 8 55 39 56 18 0 30-7 34-22zm-45-69c5-46-57-63-70-21-2 6-4 13-4 21h74" id="aG"/><path fill="#a9afb8" d="M135-194c87-1 58 113 63 194h-50c-7-57 23-157-34-157-59 0-34 97-39 157H25l-1-190h47c2 12-1 28 3 38 12-26 28-41 61-42" id="aH"/><path fill="#a9afb8" d="M195-6C206 82 75 100 31 46c-4-6-6-13-8-21l49-6c3 16 16 24 34 25 40 0 42-37 40-79-11 22-30 35-61 35-53 0-70-43-70-97 0-56 18-96 73-97 30 0 46 14 59 34l2-30h47zm-90-29c32 0 41-27 41-63 0-35-9-62-40-62-32 0-39 29-40 63 0 36 9 62 39 62" id="aI"/><g id="h"><use transform="matrix(0.0728395061728395,0,0,0.0728395061728395,0,0)" xlink:href="#aE"/><use transform="matrix(0.0728395061728395,0,0,0.0728395061728395,17.48148148148148,0)" xlink:href="#ax"/><use transform="matrix(0.0728395061728395,0,0,0.0728395061728395,27.679012345679013,0)" xlink:href="#aF"/><use transform="matrix(0.0728395061728395,0,0,0.0728395061728395,43.63086419753086,0)" xlink:href="#ay"/><use transform="matrix(0.0728395061728395,0,0,0.0728395061728395,58.19876543209875,0)" xlink:href="#aG"/><use transform="matrix(0.0728395061728395,0,0,0.0728395061728395,72.76666666666667,0)" xlink:href="#aC"/><use transform="matrix(0.0728395061728395,0,0,0.0728395061728395,87.33456790123456,0)" xlink:href="#aC"/><use transform="matrix(0.0728395061728395,0,0,0.0728395061728395,101.90246913580246,0)" xlink:href="#aA"/><use transform="matrix(0.0728395061728395,0,0,0.0728395061728395,109.18641975308641,0)" xlink:href="#aH"/><use transform="matrix(0.0728395061728395,0,0,0.0728395061728395,125.13827160493827,0)" xlink:href="#aI"/></g><path fill="#a9afb8" d="M169-182c-1-43-94-46-97-3 18 66 151 10 154 114 3 95-165 93-204 36-6-8-10-19-12-30l50-8c3 46 112 56 116 5-17-69-150-10-154-114-4-87 153-88 188-35 5 8 8 18 10 28" id="aJ"/><path fill="#a9afb8" d="M84 4C32 4 15-41 15-95c0-55 18-99 73-99 29 0 47 12 58 34l2-30h48l-1 265h-49V-32C136-9 114 4 84 4zm21-34c32 0 41-29 41-66 0-36-9-64-40-64-33 0-39 30-40 65 0 43 13 65 39 65" id="aK"/><path fill="#a9afb8" d="M85 4C-2 5 27-109 22-190h50c7 57-23 150 33 157 60-5 35-97 40-157h50l1 190h-47c-2-12 1-28-3-38-12 25-28 42-61 42" id="aL"/><g id="i"><use transform="matrix(0.0728395061728395,0,0,0.0728395061728395,0,0)" xlink:href="#aJ"/><use transform="matrix(0.0728395061728395,0,0,0.0728395061728395,17.48148148148148,0)" xlink:href="#aG"/><use transform="matrix(0.0728395061728395,0,0,0.0728395061728395,32.04938271604938,0)" xlink:href="#aK"/><use transform="matrix(0.0728395061728395,0,0,0.0728395061728395,48.00123456790123,0)" xlink:href="#aL"/><use transform="matrix(0.0728395061728395,0,0,0.0728395061728395,63.95308641975308,0)" xlink:href="#aG"/><use transform="matrix(0.0728395061728395,0,0,0.0728395061728395,78.52098765432098,0)" xlink:href="#aH"/><use transform="matrix(0.0728395061728395,0,0,0.0728395061728395,94.47283950617283,0)" xlink:href="#ay"/><use transform="matrix(0.0728395061728395,0,0,0.0728395061728395,109.04074074074072,0)" xlink:href="#aG"/></g><path fill="#a9afb8" d="M153-248C145-148 188 4 80 4 36 3 13-21 6-62l32-5c4 25 16 42 43 43 27 0 39-20 39-49v-147H72v-28h81" id="aM"/><path fill="#a9afb8" d="M100-194c62-1 85 37 85 99 1 63-27 99-86 99S16-35 15-95c0-66 28-99 85-99zM99-20c44 1 53-31 53-75 0-43-8-75-51-75s-53 32-53 75 10 74 51 75" id="aN"/><path fill="#a9afb8" d="M100-194c63 0 86 42 84 106H49c0 40 14 67 53 68 26 1 43-12 49-29l28 8c-11 28-37 45-77 45C44 4 14-33 15-96c1-61 26-98 85-98zm52 81c6-60-76-77-97-28-3 7-6 17-6 28h103" id="aO"/><g id="j"><use transform="matrix(0.04248971193415638,0,0,0.04248971193415638,0,0)" xlink:href="#aM"/><use transform="matrix(0.04248971193415638,0,0,0.04248971193415638,7.648148148148148,0)" xlink:href="#aN"/><use transform="matrix(0.04248971193415638,0,0,0.04248971193415638,16.14609053497942,0)" xlink:href="#aO"/></g><path fill="#a9afb8" d="M212-179c-10-28-35-45-73-45-59 0-87 40-87 99 0 60 29 101 89 101 43 0 62-24 78-52l27 14C228-24 195 4 139 4 59 4 22-46 18-125c-6-104 99-153 187-111 19 9 31 26 39 46" id="aP"/><path fill="#a9afb8" d="M24 0v-261h32V0H24" id="aQ"/><path fill="#a9afb8" d="M141-36C126-15 110 5 73 4 37 3 15-17 15-53c-1-64 63-63 125-63 3-35-9-54-41-54-24 1-41 7-42 31l-33-3c5-37 33-52 76-52 45 0 72 20 72 64v82c-1 20 7 32 28 27v20c-31 9-61-2-59-35zM48-53c0 20 12 33 32 33 41-3 63-29 60-74-43 2-92-5-92 41" id="aR"/><path fill="#a9afb8" d="M135-143c-3-34-86-38-87 0 15 53 115 12 119 90S17 21 10-45l28-5c4 36 97 45 98 0-10-56-113-15-118-90-4-57 82-63 122-42 12 7 21 19 24 35" id="aS"/><path fill="#a9afb8" d="M84 4C-5 8 30-112 23-190h32v120c0 31 7 50 39 49 72-2 45-101 50-169h31l1 190h-30c-1-10 1-25-2-33-11 22-28 36-60 37" id="aT"/><path fill="#a9afb8" d="M114-163C36-179 61-72 57 0H25l-1-190h30c1 12-1 29 2 39 6-27 23-49 58-41v29" id="aU"/><path fill="#a9afb8" d="M85-194c31 0 48 13 60 33l-1-100h32l1 261h-30c-2-10 0-23-3-31C134-8 116 4 85 4 32 4 16-35 15-94c0-66 23-100 70-100zm9 24c-40 0-46 34-46 75 0 40 6 74 45 74 42 0 51-32 51-76 0-42-9-74-50-73" id="aV"/><g id="k"><use transform="matrix(0.04248971193415638,0,0,0.04248971193415638,0,0)" xlink:href="#aP"/><use transform="matrix(0.04248971193415638,0,0,0.04248971193415638,11.004835390946502,0)" xlink:href="#aN"/><use transform="matrix(0.04248971193415638,0,0,0.04248971193415638,19.502777777777776,0)" xlink:href="#aQ"/><use transform="matrix(0.04248971193415638,0,0,0.04248971193415638,22.85946502057613,0)" xlink:href="#aR"/><use transform="matrix(0.04248971193415638,0,0,0.04248971193415638,31.357407407407408,0)" xlink:href="#aS"/><use transform="matrix(0.04248971193415638,0,0,0.04248971193415638,39.00555555555555,0)" xlink:href="#aT"/><use transform="matrix(0.04248971193415638,0,0,0.04248971193415638,47.50349794238683,0)" xlink:href="#aU"/><use transform="matrix(0.04248971193415638,0,0,0.04248971193415638,52.559773662551436,0)" xlink:href="#aV"/><use transform="matrix(0.04248971193415638,0,0,0.04248971193415638,61.05771604938271,0)" xlink:href="#aN"/></g><path fill="#a9afb8" d="M32 76v-337h29V76H32" id="aW"/><use transform="matrix(0.04248971193415638,0,0,0.04248971193415638,0,0)" xlink:href="#aW" id="l"/><path fill="#a9afb8" d="M63-220v92h138v28H63V0H30v-248h175v28H63" id="aX"/><path fill="#a9afb8" d="M115-194c53 0 69 39 70 98 0 66-23 100-70 100C84 3 66-7 56-30L54 0H23l1-261h32v101c10-23 28-34 59-34zm-8 174c40 0 45-34 45-75 0-40-5-75-45-74-42 0-51 32-51 76 0 43 10 73 51 73" id="aY"/><path fill="#a9afb8" d="M179-190L93 31C79 59 56 82 12 73V49c39 6 53-20 64-50L1-190h34L92-34l54-156h33" id="aZ"/><g id="m"><use transform="matrix(0.04248971193415638,0,0,0.04248971193415638,0,0)" xlink:href="#aX"/><use transform="matrix(0.04248971193415638,0,0,0.04248971193415638,9.305246913580246,0)" xlink:href="#aO"/><use transform="matrix(0.04248971193415638,0,0,0.04248971193415638,17.80318930041152,0)" xlink:href="#aY"/><use transform="matrix(0.04248971193415638,0,0,0.04248971193415638,26.301131687242794,0)" xlink:href="#aU"/><use transform="matrix(0.04248971193415638,0,0,0.04248971193415638,31.357407407407408,0)" xlink:href="#aT"/><use transform="matrix(0.04248971193415638,0,0,0.04248971193415638,39.85534979423868,0)" xlink:href="#aR"/><use transform="matrix(0.04248971193415638,0,0,0.04248971193415638,48.35329218106995,0)" xlink:href="#aU"/><use transform="matrix(0.04248971193415638,0,0,0.04248971193415638,53.40956790123455,0)" xlink:href="#aZ"/></g><path fill="#a9afb8" d="M27 0v-27h64v-190l-56 39v-29l58-41h29v221h61V0H27" id="ba"/><path fill="#a9afb8" d="M101-251c68 0 85 55 85 127S166 4 100 4C33 4 14-52 14-124c0-73 17-127 87-127zm-1 229c47 0 54-49 54-102s-4-102-53-102c-51 0-55 48-55 102 0 53 5 102 54 102" id="bb"/><path fill="#a9afb8" d="M68-38c1 34 0 65-14 84H32c9-13 17-26 17-46H33v-38h35" id="bc"/><g id="n"><use transform="matrix(0.04248971193415638,0,0,0.04248971193415638,0,0)" xlink:href="#ba"/><use transform="matrix(0.04248971193415638,0,0,0.04248971193415638,8.497942386831275,0)" xlink:href="#bb"/><use transform="matrix(0.04248971193415638,0,0,0.04248971193415638,16.99588477366255,0)" xlink:href="#bc"/></g><path fill="#a9afb8" d="M101-251c82-7 93 87 43 132L82-64C71-53 59-42 53-27h129V0H18c2-99 128-94 128-182 0-28-16-43-45-43s-46 15-49 41l-32-3c6-41 34-60 81-64" id="bd"/><g id="o"><use transform="matrix(0.04248971193415638,0,0,0.04248971193415638,0,0)" xlink:href="#bd"/><use transform="matrix(0.04248971193415638,0,0,0.04248971193415638,8.497942386831275,0)" xlink:href="#bb"/><use transform="matrix(0.04248971193415638,0,0,0.04248971193415638,16.99588477366255,0)" xlink:href="#bd"/><use transform="matrix(0.04248971193415638,0,0,0.04248971193415638,25.493827160493822,0)" xlink:href="#ba"/></g><path fill="#333" d="M67-158c22-48 132-52 116 29L158 0h-32l25-140c3-38-53-32-70-12C52-117 51-52 38 0H6l36-190h30" id="be"/><path fill="#333" d="M103-194c29 0 47 14 56 36 2-11 5-23 8-32h30L160-5C157 61 82 97 21 62 9 55 4 45 1 30l28-7c7 42 83 31 92-3 4-16 9-38 13-55-13 20-29 36-62 36-40 0-60-25-60-64 0-71 23-131 91-131zm4 24c-53 0-58 54-61 104-2 27 10 44 36 44 49 0 65-50 67-102 1-29-15-46-42-46" id="bf"/><g id="p"><use transform="matrix(0.04938271604938272,0,0,0.04938271604938272,0,0)" xlink:href="#ag"/><use transform="matrix(0.04938271604938272,0,0,0.04938271604938272,9.876543209876544,0)" xlink:href="#ai"/><use transform="matrix(0.04938271604938272,0,0,0.04938271604938272,19.75308641975309,0)" xlink:href="#be"/><use transform="matrix(0.04938271604938272,0,0,0.04938271604938272,29.629629629629633,0)" xlink:href="#al"/><use transform="matrix(0.04938271604938272,0,0,0.04938271604938272,39.50617283950618,0)" xlink:href="#af"/><use transform="matrix(0.04938271604938272,0,0,0.04938271604938272,43.40740740740741,0)" xlink:href="#be"/><use transform="matrix(0.04938271604938272,0,0,0.04938271604938272,53.283950617283956,0)" xlink:href="#bf"/><path fill="#333" d="M-.9 1.23H69v1.3H-.9z"/></g><g id="q"><use transform="matrix(0.04938271604938272,0,0,0.04938271604938272,0,0)" xlink:href="#an"/><use transform="matrix(0.04938271604938272,0,0,0.04938271604938272,5.8765432098765435,0)" xlink:href="#ai"/><use transform="matrix(0.04938271604938272,0,0,0.04938271604938272,15.753086419753087,0)" xlink:href="#aj"/><use transform="matrix(0.04938271604938272,0,0,0.04938271604938272,24.641975308641978,0)" xlink:href="#ai"/><use transform="matrix(0.04938271604938272,0,0,0.04938271604938272,34.51851851851852,0)" xlink:href="#ao"/><use transform="matrix(0.04938271604938272,0,0,0.04938271604938272,44.39506172839506,0)" xlink:href="#an"/><use transform="matrix(0.04938271604938272,0,0,0.04938271604938272,50.27160493827161,0)" xlink:href="#ad"/><use transform="matrix(0.04938271604938272,0,0,0.04938271604938272,59.1604938271605,0)" xlink:href="#aq"/><path fill="#333" d="M-.9 1.23h70.82v1.3H-.88z"/></g><path fill="#333" d="M133-28C103 26-5 8 13-77c13-62 24-115 90-117 29-1 46 15 56 35 2-12 6-24 8-34h31L144 75h-31zM45-64c-2 27 10 43 35 43 54-1 69-50 69-103 0-29-15-46-42-46-53-1-58 58-62 106" id="bg"/><g id="r"><use transform="matrix(0.04938271604938272,0,0,0.04938271604938272,0,0)" xlink:href="#bg"/><use transform="matrix(0.04938271604938272,0,0,0.04938271604938272,9.876543209876544,0)" xlink:href="#am"/><use transform="matrix(0.04938271604938272,0,0,0.04938271604938272,19.75308641975309,0)" xlink:href="#ai"/><use transform="matrix(0.04938271604938272,0,0,0.04938271604938272,29.629629629629633,0)" xlink:href="#am"/><use transform="matrix(0.04938271604938272,0,0,0.04938271604938272,39.50617283950618,0)" xlink:href="#ai"/><path fill="#333" d="M-.9 1.23h51.17v1.3H-.9z"/></g><g id="s"><use transform="matrix(0.04938271604938272,0,0,0.04938271604938272,0,0)" xlink:href="#al"/><use transform="matrix(0.04938271604938272,0,0,0.04938271604938272,9.876543209876544,0)" xlink:href="#ao"/><use transform="matrix(0.04938271604938272,0,0,0.04938271604938272,19.75308641975309,0)" xlink:href="#ap"/><use transform="matrix(0.04938271604938272,0,0,0.04938271604938272,24.69135802469136,0)" xlink:href="#ao"/><path fill="#333" d="M-.9 1.23h41.3v1.3H-.9z"/></g><g id="t"><use transform="matrix(0.04938271604938272,0,0,0.04938271604938272,0,0)" xlink:href="#aj"/><use transform="matrix(0.04938271604938272,0,0,0.04938271604938272,8.88888888888889,0)" xlink:href="#ap"/><use transform="matrix(0.04938271604938272,0,0,0.04938271604938272,13.827160493827162,0)" xlink:href="#ak"/><use transform="matrix(0.04938271604938272,0,0,0.04938271604938272,23.703703703703706,0)" xlink:href="#an"/><use transform="matrix(0.04938271604938272,0,0,0.04938271604938272,29.58024691358025,0)" xlink:href="#ai"/><path fill="#333" d="M-.9 1.23h41.24v1.3H-.9z"/></g><g id="u"><use transform="matrix(0.04938271604938272,0,0,0.04938271604938272,0,0)" xlink:href="#bg"/><use transform="matrix(0.04938271604938272,0,0,0.04938271604938272,9.876543209876544,0)" xlink:href="#am"/><use transform="matrix(0.04938271604938272,0,0,0.04938271604938272,19.75308641975309,0)" xlink:href="#ai"/><use transform="matrix(0.04938271604938272,0,0,0.04938271604938272,29.629629629629633,0)" xlink:href="#am"/><use transform="matrix(0.04938271604938272,0,0,0.04938271604938272,39.50617283950618,0)" xlink:href="#ai"/><use transform="matrix(0.04938271604938272,0,0,0.04938271604938272,49.38271604938272,0)" xlink:href="#aj"/><path fill="#333" d="M-.9 1.23h60.06v1.3H-.9z"/></g><path fill="#333" d="M96-169c-40 0-48 33-48 73s9 75 48 75c24 0 41-14 43-38l32 2c-6 37-31 61-74 61-59 0-76-41-82-99-10-93 101-131 147-64 4 7 5 14 7 22l-32 3c-4-21-16-35-41-35" id="bh"/><path fill="#333" d="M100-194c62-1 85 37 85 99 1 63-27 99-86 99S16-35 15-95c0-66 28-99 85-99zM99-20c44 1 53-31 53-75 0-43-8-75-51-75s-53 32-53 75 10 74 51 75" id="bi"/><path fill="#333" d="M117-194c89-4 53 116 60 194h-32v-121c0-31-8-49-39-48C34-167 62-67 57 0H25l-1-190h30c1 10-1 24 2 32 11-22 29-35 61-36" id="bj"/><path fill="#333" d="M135-143c-3-34-86-38-87 0 15 53 115 12 119 90S17 21 10-45l28-5c4 36 97 45 98 0-10-56-113-15-118-90-4-57 82-63 122-42 12 7 21 19 24 35" id="bk"/><path fill="#333" d="M84 4C-5 8 30-112 23-190h32v120c0 31 7 50 39 49 72-2 45-101 50-169h31l1 190h-30c-1-10 1-25-2-33-11 22-28 36-60 37" id="bl"/><path fill="#333" d="M210-169c-67 3-38 105-44 169h-31v-121c0-29-5-50-35-48C34-165 62-65 56 0H25l-1-190h30c1 10-1 24 2 32 10-44 99-50 107 0 11-21 27-35 58-36 85-2 47 119 55 194h-31v-121c0-29-5-49-35-48" id="bm"/><path fill="#333" d="M100-194c63 0 86 42 84 106H49c0 40 14 67 53 68 26 1 43-12 49-29l28 8c-11 28-37 45-77 45C44 4 14-33 15-96c1-61 26-98 85-98zm52 81c6-60-76-77-97-28-3 7-6 17-6 28h103" id="bn"/><g id="v"><use transform="matrix(0.05,0,0,0.05,0,0)" xlink:href="#bh"/><use transform="matrix(0.05,0,0,0.05,9,0)" xlink:href="#bi"/><use transform="matrix(0.05,0,0,0.05,19,0)" xlink:href="#bj"/><use transform="matrix(0.05,0,0,0.05,29,0)" xlink:href="#bk"/><use transform="matrix(0.05,0,0,0.05,38,0)" xlink:href="#bl"/><use transform="matrix(0.05,0,0,0.05,48,0)" xlink:href="#bm"/><use transform="matrix(0.05,0,0,0.05,62.95,0)" xlink:href="#bn"/></g><path fill="#333" d="M24 0v-261h32V0H24" id="bo"/><path fill="#333" d="M24-231v-30h32v30H24zM24 0v-190h32V0H24" id="bp"/><path fill="#333" d="M115-194c55 1 70 41 70 98S169 2 115 4C84 4 66-9 55-30l1 105H24l-1-265h31l2 30c10-21 28-34 59-34zm-8 174c40 0 45-34 45-75s-6-73-45-74c-42 0-51 32-51 76 0 43 10 73 51 73" id="bq"/><path fill="#333" d="M0 4l72-265h28L28 4H0" id="br"/><path fill="#333" d="M85-194c31 0 48 13 60 33l-1-100h32l1 261h-30c-2-10 0-23-3-31C134-8 116 4 85 4 32 4 16-35 15-94c0-66 23-100 70-100zm9 24c-40 0-46 34-46 75 0 40 6 74 45 74 42 0 51-32 51-76 0-42-9-74-50-73" id="bs"/><g id="w"><use transform="matrix(0.05,0,0,0.05,0,0)" xlink:href="#bh"/><use transform="matrix(0.05,0,0,0.05,9,0)" xlink:href="#bo"/><use transform="matrix(0.05,0,0,0.05,12.949999999999998,0)" xlink:href="#bp"/><use transform="matrix(0.05,0,0,0.05,16.9,0)" xlink:href="#bq"/><use transform="matrix(0.05,0,0,0.05,26.899999999999995,0)" xlink:href="#br"/><use transform="matrix(0.05,0,0,0.05,31.899999999999995,0)" xlink:href="#bn"/><use transform="matrix(0.05,0,0,0.05,41.9,0)" xlink:href="#bq"/><use transform="matrix(0.05,0,0,0.05,51.900000000000006,0)" xlink:href="#bp"/><use transform="matrix(0.05,0,0,0.05,55.85,0)" xlink:href="#bk"/><use transform="matrix(0.05,0,0,0.05,64.85,0)" xlink:href="#bi"/><use transform="matrix(0.05,0,0,0.05,74.85,0)" xlink:href="#bs"/><use transform="matrix(0.05,0,0,0.05,84.85,0)" xlink:href="#bn"/></g><path fill="#333" d="M114-163C36-179 61-72 57 0H25l-1-190h30c1 12-1 29 2 39 6-27 23-49 58-41v29" id="bt"/><path fill="#333" d="M59-47c-2 24 18 29 38 22v24C64 9 27 4 27-40v-127H5v-23h24l9-43h21v43h35v23H59v120" id="bu"/><g id="x"><use transform="matrix(0.05,0,0,0.05,0,0)" xlink:href="#bl"/><use transform="matrix(0.05,0,0,0.05,10,0)" xlink:href="#bq"/><use transform="matrix(0.05,0,0,0.05,20,0)" xlink:href="#bk"/><use transform="matrix(0.05,0,0,0.05,29,0)" xlink:href="#bn"/><use transform="matrix(0.05,0,0,0.05,39,0)" xlink:href="#bt"/><use transform="matrix(0.05,0,0,0.05,44.95,0)" xlink:href="#bu"/></g><g id="y"><use transform="matrix(0.04938271604938272,0,0,0.04938271604938272,0,0)" xlink:href="#ao"/><use transform="matrix(0.04938271604938272,0,0,0.04938271604938272,9.876543209876544,0)" xlink:href="#an"/><use transform="matrix(0.04938271604938272,0,0,0.04938271604938272,15.753086419753087,0)" xlink:href="#ad"/><use transform="matrix(0.04938271604938272,0,0,0.04938271604938272,24.641975308641978,0)" xlink:href="#aq"/><use transform="matrix(0.04938271604938272,0,0,0.04938271604938272,34.51851851851852,0)" xlink:href="#af"/><use transform="matrix(0.04938271604938272,0,0,0.04938271604938272,38.41975308641975,0)" xlink:href="#ar"/><use transform="matrix(0.04938271604938272,0,0,0.04938271604938272,47.308641975308646,0)" xlink:href="#af"/><use transform="matrix(0.04938271604938272,0,0,0.04938271604938272,51.20987654320988,0)" xlink:href="#aj"/><use transform="matrix(0.04938271604938272,0,0,0.04938271604938272,60.09876543209877,0)" xlink:href="#ap"/><use transform="matrix(0.04938271604938272,0,0,0.04938271604938272,65.03703703703704,0)" xlink:href="#aj"/><path fill="#333" d="M-.9 1.23h75.7v1.3H-.9z"/></g><path fill="#333" d="M115-194c53 0 69 39 70 98 0 66-23 100-70 100C84 3 66-7 56-30L54 0H23l1-261h32v101c10-23 28-34 59-34zm-8 174c40 0 45-34 45-75 0-40-5-75-45-74-42 0-51 32-51 76 0 43 10 73 51 73" id="bv"/><path fill="#333" d="M106-169C34-169 62-67 57 0H25v-261h32l-1 103c12-21 28-36 61-36 89 0 53 116 60 194h-32v-121c2-32-8-49-39-48" id="bw"/><g id="z"><use transform="matrix(0.05,0,0,0.05,0,0)" xlink:href="#bq"/><use transform="matrix(0.05,0,0,0.05,10,0)" xlink:href="#bl"/><use transform="matrix(0.05,0,0,0.05,20,0)" xlink:href="#bv"/><use transform="matrix(0.05,0,0,0.05,30,0)" xlink:href="#bo"/><use transform="matrix(0.05,0,0,0.05,33.95,0)" xlink:href="#bp"/><use transform="matrix(0.05,0,0,0.05,37.900000000000006,0)" xlink:href="#bk"/><use transform="matrix(0.05,0,0,0.05,46.900000000000006,0)" xlink:href="#bw"/></g><path fill="#333" d="M206 0h-36l-40-164L89 0H53L-1-190h32L70-26l43-164h34l41 164 42-164h31" id="bx"/><path fill="#333" d="M143 0L79-87 56-68V0H24v-261h32v163l83-92h37l-77 82L181 0h-38" id="by"/><g id="A"><use transform="matrix(0.05,0,0,0.05,0,0)" xlink:href="#bx"/><use transform="matrix(0.05,0,0,0.05,12.950000000000001,0)" xlink:href="#bi"/><use transform="matrix(0.05,0,0,0.05,22.950000000000003,0)" xlink:href="#bt"/><use transform="matrix(0.05,0,0,0.05,28.900000000000002,0)" xlink:href="#by"/></g><g id="B"><use transform="matrix(0.05,0,0,0.05,0,0)" xlink:href="#bp"/><use transform="matrix(0.05,0,0,0.05,3.95,0)" xlink:href="#bu"/><use transform="matrix(0.05,0,0,0.05,8.95,0)" xlink:href="#bn"/><use transform="matrix(0.05,0,0,0.05,18.95,0)" xlink:href="#bm"/></g><g id="C"><use transform="matrix(0.04938271604938272,0,0,0.04938271604938272,0,0)" xlink:href="#an"/><use transform="matrix(0.04938271604938272,0,0,0.04938271604938272,5.8765432098765435,0)" xlink:href="#ai"/><use transform="matrix(0.04938271604938272,0,0,0.04938271604938272,15.753086419753087,0)" xlink:href="#aj"/><use transform="matrix(0.04938271604938272,0,0,0.04938271604938272,24.641975308641978,0)" xlink:href="#ai"/><use transform="matrix(0.04938271604938272,0,0,0.04938271604938272,34.51851851851852,0)" xlink:href="#ao"/><use transform="matrix(0.04938271604938272,0,0,0.04938271604938272,44.39506172839506,0)" xlink:href="#an"/><use transform="matrix(0.04938271604938272,0,0,0.04938271604938272,50.27160493827161,0)" xlink:href="#ad"/><use transform="matrix(0.04938271604938272,0,0,0.04938271604938272,59.1604938271605,0)" xlink:href="#aq"/><use transform="matrix(0.04938271604938272,0,0,0.04938271604938272,69.03703703703704,0)" xlink:href="#ai"/><use transform="matrix(0.04938271604938272,0,0,0.04938271604938272,78.91358024691358,0)" xlink:href="#an"/><use transform="matrix(0.04938271604938272,0,0,0.04938271604938272,84.79012345679013,0)" xlink:href="#aj"/><path fill="#333" d="M-.9 1.23h95.47v1.3H-.9z"/></g><path fill="#333" d="M248-111c6-24 9-61-24-58-72 9-57 108-77 169h-31l26-142c3-37-50-30-64-10C52-115 50-51 37 0H6l36-190h30c-1 10-6 24-4 32 13-43 101-52 105 5 13-22 29-41 61-41 90 0 28 129 23 194h-31" id="bz"/><g id="D"><use transform="matrix(0.04938271604938272,0,0,0.04938271604938272,0,0)" xlink:href="#ad"/><use transform="matrix(0.04938271604938272,0,0,0.04938271604938272,8.88888888888889,0)" xlink:href="#ak"/><use transform="matrix(0.04938271604938272,0,0,0.04938271604938272,18.765432098765434,0)" xlink:href="#bz"/><use transform="matrix(0.04938271604938272,0,0,0.04938271604938272,33.53086419753087,0)" xlink:href="#ag"/><use transform="matrix(0.04938271604938272,0,0,0.04938271604938272,43.40740740740741,0)" xlink:href="#ae"/><use transform="matrix(0.04938271604938272,0,0,0.04938271604938272,47.308641975308646,0)" xlink:href="#ai"/><use transform="matrix(0.04938271604938272,0,0,0.04938271604938272,57.18518518518519,0)" xlink:href="#ap"/><use transform="matrix(0.04938271604938272,0,0,0.04938271604938272,62.12345679012346,0)" xlink:href="#ai"/><use transform="matrix(0.04938271604938272,0,0,0.04938271604938272,72,0)" xlink:href="#al"/><path fill="#333" d="M-.9 1.23h88.6v1.3H-.9z"/></g><path fill="#333" d="M188 0h-37l-8-164L71 0H34L18-190h31l8 164 75-164h34l8 164 74-164h31" id="bA"/><path fill="#333" d="M127 0L80-88 50-66 37 0H6l51-261h31L57-100l99-90h39l-93 82L161 0h-34" id="bB"/><g id="E"><use transform="matrix(0.04938271604938272,0,0,0.04938271604938272,0,0)" xlink:href="#bA"/><use transform="matrix(0.04938271604938272,0,0,0.04938271604938272,12.790123456790125,0)" xlink:href="#ak"/><use transform="matrix(0.04938271604938272,0,0,0.04938271604938272,22.66666666666667,0)" xlink:href="#an"/><use transform="matrix(0.04938271604938272,0,0,0.04938271604938272,28.54320987654322,0)" xlink:href="#bB"/><path fill="#333" d="M-.9 1.23h39.22v1.3H-.88z"/></g><g id="F"><use transform="matrix(0.05,0,0,0.05,0,0)" xlink:href="#bh"/><use transform="matrix(0.05,0,0,0.05,9,0)" xlink:href="#bi"/><use transform="matrix(0.05,0,0,0.05,19,0)" xlink:href="#bm"/><use transform="matrix(0.05,0,0,0.05,33.95,0)" xlink:href="#bq"/><use transform="matrix(0.05,0,0,0.05,43.95,0)" xlink:href="#bo"/><use transform="matrix(0.05,0,0,0.05,47.900000000000006,0)" xlink:href="#bn"/><use transform="matrix(0.05,0,0,0.05,57.900000000000006,0)" xlink:href="#bu"/><use transform="matrix(0.05,0,0,0.05,62.900000000000006,0)" xlink:href="#bn"/><use transform="matrix(0.05,0,0,0.05,72.9,0)" xlink:href="#bs"/></g><g id="G"><use transform="matrix(0.05,0,0,0.05,0,0)" xlink:href="#bh"/><use transform="matrix(0.05,0,0,0.05,9,0)" xlink:href="#bo"/><use transform="matrix(0.05,0,0,0.05,12.949999999999998,0)" xlink:href="#bp"/><use transform="matrix(0.05,0,0,0.05,16.9,0)" xlink:href="#bq"/></g><g id="H"><use transform="matrix(0.05,0,0,0.05,0,0)" xlink:href="#bt"/><use transform="matrix(0.05,0,0,0.05,5.95,0)" xlink:href="#bn"/><use transform="matrix(0.05,0,0,0.05,15.949999999999998,0)" xlink:href="#bj"/><use transform="matrix(0.05,0,0,0.05,25.950000000000003,0)" xlink:href="#bn"/><use transform="matrix(0.05,0,0,0.05,35.95,0)" xlink:href="#bx"/></g><path fill="#333" d="M141-36C126-15 110 5 73 4 37 3 15-17 15-53c-1-64 63-63 125-63 3-35-9-54-41-54-24 1-41 7-42 31l-33-3c5-37 33-52 76-52 45 0 72 20 72 64v82c-1 20 7 32 28 27v20c-31 9-61-2-59-35zM48-53c0 20 12 33 32 33 41-3 63-29 60-74-43 2-92-5-92 41" id="bC"/><g id="I"><use transform="matrix(0.05,0,0,0.05,0,0)" xlink:href="#bo"/><use transform="matrix(0.05,0,0,0.05,3.95,0)" xlink:href="#bn"/><use transform="matrix(0.05,0,0,0.05,13.949999999999998,0)" xlink:href="#bC"/><use transform="matrix(0.05,0,0,0.05,23.95,0)" xlink:href="#bk"/><use transform="matrix(0.05,0,0,0.05,32.95,0)" xlink:href="#bn"/></g><g id="J"><use transform="matrix(0.05,0,0,0.05,0,0)" xlink:href="#bh"/><use transform="matrix(0.05,0,0,0.05,9,0)" xlink:href="#bw"/><use transform="matrix(0.05,0,0,0.05,19,0)" xlink:href="#bn"/><use transform="matrix(0.05,0,0,0.05,29,0)" xlink:href="#bh"/><use transform="matrix(0.05,0,0,0.05,38,0)" xlink:href="#by"/></g><path fill="#333" d="M179-190L93 31C79 59 56 82 12 73V49c39 6 53-20 64-50L1-190h34L92-34l54-156h33" id="bD"/><g id="K"><use transform="matrix(0.05,0,0,0.05,0,0)" xlink:href="#bh"/><use transform="matrix(0.05,0,0,0.05,9,0)" xlink:href="#bC"/><use transform="matrix(0.05,0,0,0.05,19,0)" xlink:href="#bq"/><use transform="matrix(0.05,0,0,0.05,29,0)" xlink:href="#bC"/><use transform="matrix(0.05,0,0,0.05,39,0)" xlink:href="#bh"/><use transform="matrix(0.05,0,0,0.05,48,0)" xlink:href="#bp"/><use transform="matrix(0.05,0,0,0.05,51.95,0)" xlink:href="#bu"/><use transform="matrix(0.05,0,0,0.05,56.95,0)" xlink:href="#bD"/></g><g id="L"><use transform="matrix(0.05,0,0,0.05,0,0)" xlink:href="#bk"/><use transform="matrix(0.05,0,0,0.05,9,0)" xlink:href="#bn"/><use transform="matrix(0.05,0,0,0.05,19,0)" xlink:href="#bo"/><use transform="matrix(0.05,0,0,0.05,22.95,0)" xlink:href="#bn"/><use transform="matrix(0.05,0,0,0.05,32.95,0)" xlink:href="#bh"/><use transform="matrix(0.05,0,0,0.05,41.95,0)" xlink:href="#bu"/></g><g id="M"><use transform="matrix(0.05,0,0,0.05,0,0)" xlink:href="#bx"/><use transform="matrix(0.05,0,0,0.05,12.950000000000001,0)" xlink:href="#bi"/><use transform="matrix(0.05,0,0,0.05,22.950000000000003,0)" xlink:href="#bt"/><use transform="matrix(0.05,0,0,0.05,28.900000000000002,0)" xlink:href="#by"/></g><g id="N"><use transform="matrix(0.05,0,0,0.05,0,0)" xlink:href="#bh"/><use transform="matrix(0.05,0,0,0.05,9,0)" xlink:href="#bt"/><use transform="matrix(0.05,0,0,0.05,14.949999999999998,0)" xlink:href="#bn"/><use transform="matrix(0.05,0,0,0.05,24.95,0)" xlink:href="#bC"/><use transform="matrix(0.05,0,0,0.05,34.95,0)" xlink:href="#bu"/><use transform="matrix(0.05,0,0,0.05,39.95,0)" xlink:href="#bn"/></g><g id="O"><use transform="matrix(0.05,0,0,0.05,0,0)" xlink:href="#bo"/><use transform="matrix(0.05,0,0,0.05,3.95,0)" xlink:href="#bn"/><use transform="matrix(0.05,0,0,0.05,13.949999999999998,0)" xlink:href="#bC"/><use transform="matrix(0.05,0,0,0.05,23.95,0)" xlink:href="#bk"/><use transform="matrix(0.05,0,0,0.05,32.95,0)" xlink:href="#bn"/><use transform="matrix(0.05,0,0,0.05,42.95,0)" xlink:href="#bk"/></g><g id="P"><use transform="matrix(0.05,0,0,0.05,0,0)" xlink:href="#bh"/><use transform="matrix(0.05,0,0,0.05,9,0)" xlink:href="#bo"/><use transform="matrix(0.05,0,0,0.05,12.949999999999998,0)" xlink:href="#bp"/><use transform="matrix(0.05,0,0,0.05,16.9,0)" xlink:href="#bq"/></g><g id="Q"><use transform="matrix(0.05,0,0,0.05,0,0)" xlink:href="#bt"/><use transform="matrix(0.05,0,0,0.05,5.95,0)" xlink:href="#bn"/><use transform="matrix(0.05,0,0,0.05,15.949999999999998,0)" xlink:href="#bk"/><use transform="matrix(0.05,0,0,0.05,24.95,0)" xlink:href="#bn"/><use transform="matrix(0.05,0,0,0.05,34.95,0)" xlink:href="#bC"/><use transform="matrix(0.05,0,0,0.05,44.95,0)" xlink:href="#bt"/><use transform="matrix(0.05,0,0,0.05,50.900000000000006,0)" xlink:href="#bh"/><use transform="matrix(0.05,0,0,0.05,59.900000000000006,0)" xlink:href="#bw"/></g><path fill="#333" d="M30 0v-248h33v221h125V0H30" id="bE"/><g id="R"><use transform="matrix(0.05,0,0,0.05,0,0)" xlink:href="#bE"/><use transform="matrix(0.05,0,0,0.05,10,0)" xlink:href="#bi"/><use transform="matrix(0.05,0,0,0.05,20,0)" xlink:href="#bi"/><use transform="matrix(0.05,0,0,0.05,30,0)" xlink:href="#bq"/></g><path fill="#333" d="M101-234c-31-9-42 10-38 44h38v23H63V0H32v-167H5v-23h27c-7-52 17-82 69-68v24" id="bF"/><g id="S"><use transform="matrix(0.05,0,0,0.05,0,0)" xlink:href="#bF"/><use transform="matrix(0.05,0,0,0.05,5,0)" xlink:href="#bi"/><use transform="matrix(0.05,0,0,0.05,15,0)" xlink:href="#bt"/></g><g id="T"><use transform="matrix(0.05,0,0,0.05,0,0)" xlink:href="#bn"/><use transform="matrix(0.05,0,0,0.05,10,0)" xlink:href="#bC"/><use transform="matrix(0.05,0,0,0.05,20,0)" xlink:href="#bh"/><use transform="matrix(0.05,0,0,0.05,29,0)" xlink:href="#bw"/></g><g id="U"><use transform="matrix(0.05,0,0,0.05,0,0)" xlink:href="#bx"/><use transform="matrix(0.05,0,0,0.05,12.950000000000001,0)" xlink:href="#bp"/><use transform="matrix(0.05,0,0,0.05,16.900000000000002,0)" xlink:href="#bu"/><use transform="matrix(0.05,0,0,0.05,21.900000000000002,0)" xlink:href="#bw"/><use transform="matrix(0.05,0,0,0.05,31.900000000000002,0)" xlink:href="#bp"/><use transform="matrix(0.05,0,0,0.05,35.85,0)" xlink:href="#bj"/></g><use transform="matrix(0.05,0,0,0.05,0,0)" xlink:href="#bC" id="V"/><path fill="#333" d="M16-82v-28h88v28H16" id="bG"/><g id="W"><use transform="matrix(0.05,0,0,0.05,0,0)" xlink:href="#bx"/><use transform="matrix(0.05,0,0,0.05,12.950000000000001,0)" xlink:href="#bi"/><use transform="matrix(0.05,0,0,0.05,22.950000000000003,0)" xlink:href="#bt"/><use transform="matrix(0.05,0,0,0.05,28.900000000000002,0)" xlink:href="#by"/><use transform="matrix(0.05,0,0,0.05,37.900000000000006,0)" xlink:href="#bG"/><use transform="matrix(0.05,0,0,0.05,43.85000000000001,0)" xlink:href="#bh"/><use transform="matrix(0.05,0,0,0.05,52.85,0)" xlink:href="#bi"/><use transform="matrix(0.05,0,0,0.05,62.85,0)" xlink:href="#bm"/><use transform="matrix(0.05,0,0,0.05,77.80000000000001,0)" xlink:href="#bq"/><use transform="matrix(0.05,0,0,0.05,87.80000000000001,0)" xlink:href="#bo"/><use transform="matrix(0.05,0,0,0.05,91.75000000000001,0)" xlink:href="#bn"/><use transform="matrix(0.05,0,0,0.05,101.75000000000001,0)" xlink:href="#bu"/><use transform="matrix(0.05,0,0,0.05,106.75,0)" xlink:href="#bn"/></g><path fill="#333" d="M108 0H70L1-190h34L89-25l56-165h34" id="bH"/><g id="X"><use transform="matrix(0.05,0,0,0.05,0,0)" xlink:href="#bt"/><use transform="matrix(0.05,0,0,0.05,5.95,0)" xlink:href="#bn"/><use transform="matrix(0.05,0,0,0.05,15.949999999999998,0)" xlink:href="#bH"/><use transform="matrix(0.05,0,0,0.05,24.95,0)" xlink:href="#bi"/><use transform="matrix(0.05,0,0,0.05,34.95,0)" xlink:href="#by"/><use transform="matrix(0.05,0,0,0.05,43.95,0)" xlink:href="#bn"/></g><g id="Y"><use transform="matrix(0.05,0,0,0.05,0,0)" xlink:href="#bC"/><use transform="matrix(0.05,0,0,0.05,10,0)" xlink:href="#bj"/><use transform="matrix(0.05,0,0,0.05,20,0)" xlink:href="#bD"/></g><path fill="#333" d="M177-190C167-65 218 103 67 71c-23-6-38-20-44-43l32-5c15 47 100 32 89-28v-30C133-14 115 1 83 1 29 1 15-40 15-95c0-56 16-97 71-98 29-1 48 16 59 35 1-10 0-23 2-32h30zM94-22c36 0 50-32 50-73 0-42-14-75-50-75-39 0-46 34-46 75s6 73 46 73" id="bI"/><g id="Z"><use transform="matrix(0.05,0,0,0.05,0,0)" xlink:href="#bt"/><use transform="matrix(0.05,0,0,0.05,5.95,0)" xlink:href="#bn"/><use transform="matrix(0.05,0,0,0.05,15.949999999999998,0)" xlink:href="#bm"/><use transform="matrix(0.05,0,0,0.05,30.899999999999995,0)" xlink:href="#bC"/><use transform="matrix(0.05,0,0,0.05,40.9,0)" xlink:href="#bp"/><use transform="matrix(0.05,0,0,0.05,44.85,0)" xlink:href="#bj"/><use transform="matrix(0.05,0,0,0.05,54.85,0)" xlink:href="#bp"/><use transform="matrix(0.05,0,0,0.05,58.800000000000004,0)" xlink:href="#bj"/><use transform="matrix(0.05,0,0,0.05,68.80000000000001,0)" xlink:href="#bI"/></g><g id="aa"><use transform="matrix(0.05,0,0,0.05,0,0)" xlink:href="#bo"/><use transform="matrix(0.05,0,0,0.05,3.95,0)" xlink:href="#bn"/><use transform="matrix(0.05,0,0,0.05,13.949999999999998,0)" xlink:href="#bC"/><use transform="matrix(0.05,0,0,0.05,23.95,0)" xlink:href="#bk"/><use transform="matrix(0.05,0,0,0.05,32.95,0)" xlink:href="#bn"/><use transform="matrix(0.05,0,0,0.05,42.95,0)" xlink:href="#bk"/></g><g id="ab"><use transform="matrix(0.05,0,0,0.05,0,0)" xlink:href="#bF"/><use transform="matrix(0.05,0,0,0.05,5,0)" xlink:href="#bi"/><use transform="matrix(0.05,0,0,0.05,15,0)" xlink:href="#bt"/></g><g id="ac"><use transform="matrix(0.05,0,0,0.05,0,0)" xlink:href="#bu"/><use transform="matrix(0.05,0,0,0.05,5,0)" xlink:href="#bw"/><use transform="matrix(0.05,0,0,0.05,15,0)" xlink:href="#bn"/></g></defs></g></svg>